<svg xmlns="http://www.w3.org/2000/svg" width="46" height="46" id="puncher">
  <path d="M23 1006.362c12.708 0 23 10.292 23 23 0 12.709-10.292 23-23 23s-23-10.291-23-23c0-12.708 10.292-23 23-23zm-8.533 12.223a1.573 1.573 0 0 0-1.207.498c-.283.305-.444.678-.553 1.05l-1.43 4.874-.277-.29v-1.796a.5.5 0 0 0-.48-.498l-2-.084h-.05a.5.5 0 0 0-.415.273l-1 1.957a.5.5 0 0 0 .424.729l2.804.115.559.58-2.67 2.41a.5.5 0 0 0-.166.371v8.244l.002-.029c-.04.651.408 1.189.996 1.34v1.16c0 .317.09.613.238.873H7v1h30v-1h-2.166c.105-.223.168-.47.168-.73v-.248c.565-.13.993-.647 1.002-1.245V1029.881a.5.5 0 0 0-.147-.353l-2.673-2.664.505-.487 2.795.116a.5.5 0 0 0 .47-.72l-1-2.04a.5.5 0 0 0-.429-.281l-2-.082a.5.5 0 0 0-.521.5v1.783l-.258.248-1.443-5.037c-.109-.38-.268-.76-.541-1.076a1.659 1.659 0 0 0-1.178-.58zm-.041 1 15.117.623c.21.01.327.077.46.232.135.155.256.409.339.7l1.537 5.369c-1.011.143-4.706.6-9.854.388-5.242-.216-8.982-1.004-9.904-1.212l1.545-5.27c.082-.28.202-.516.326-.65a.475.475 0 0 1 .434-.18zm-5.627 3.767 1.201.05v1l-1.701-.07zm25.205 1.04 1.182.049.5 1.02-1.682-.07zm-22.35 2.214c.43.103 4.54 1.05 10.33 1.29 5.857.241 10.018-.39 10.366-.444l2.654 2.645v8.029c-.003.201-.11.302-.28.295l-4.804-.2a1.545 1.545 0 0 0-1.395-1.056l-13-.537a1.47 1.47 0 0 0-1.42.941l-4.779-.197c-.168-.01-.33-.169-.32-.322v-8.053zm-1.16 3.817a.503.503 0 0 0-.49.5v4a.5.5 0 0 0 .48.498l4 .166a.5.5 0 0 0 .52-.5c0-1.35-.409-2.538-1.197-3.381-.789-.843-1.947-1.31-3.313-1.283zm4.98.205a.5.5 0 0 0-.445.652l1.3 4.055a.5.5 0 0 0 .454.346l10.4.43a.5.5 0 0 0 .497-.345l1.299-3.945a.5.5 0 0 0-.454-.656l-13-.537h-.05zm17.096.736c-.942.083-1.752.442-2.353 1.035-.802.791-1.213 1.957-1.213 3.307a.5.5 0 0 0 .48.5l4 .164a.5.5 0 0 0 .52-.5v-4a.5.5 0 0 0-.45-.496 5.16 5.16 0 0 0-.984-.01zm-21.566.139c.867.085 1.582.363 2.072.887.487.52.752 1.283.846 2.171l-2.918-.119v-.506zm5.195.154 11.623.479-.324.986-10.975-.451zm16.805.746v2.946l-2.924-.12c.088-.896.355-1.642.838-2.119.486-.48 1.201-.702 2.086-.707zm-16.154 1.28 10.322.427-.324.985-9.674-.399zm20.152 3.68a.504.504 0 0 0-.441.257l-.5.865c-.334.578.533 1.078.867.5l.5-.865a.5.5 0 0 0-.426-.758zm-21.518.263 13 .535a.55.55 0 0 1 .52.543.5.5 0 0 0 .564.502h.016l.418.017v.404c0 .262.063.507.168.73H13.842c.1-.216.162-.453.162-.706v-1.088l.383.016h.015a.5.5 0 0 0 .602-.496c0-.286.194-.471.48-.46zm-5.48.775 3 .125v1.13c0 .417-.292.696-.691.68l-1.575-.063a.784.784 0 0 1-.734-.783zm20.998.867 3 .123v.24c0 .419-.313.731-.713.731h-1.574a.709.709 0 0 1-.713-.73zm6.43.094c-.667.034-.616 1.034.05 1h1c.677.01.677-1.01 0-1h-1.05z" color="#000" font-family="sans-serif" font-weight="400" overflow="visible" style="line-height:normal;text-indent:0;text-align:start;text-decoration-line:none;text-decoration-style:solid;text-decoration-color:#000;text-transform:none;block-progression:tb;isolation:auto;mix-blend-mode:normal" transform="translate(0 -1006.362)"></path>
</svg>
