<svg xmlns="http://www.w3.org/2000/svg" width="46" height="46" id="automobile">
  <path d="M23 1006.362c12.708 0 23 10.292 23 23 0 12.709-10.292 23-23 23s-23-10.291-23-23c0-12.708 10.292-23 23-23zm-1.5 9a.5.5 0 0 0-.5.5v1.52a12.497 12.497 0 0 0-11.049 7.697 12.504 12.504 0 0 0 2.71 13.623 12.504 12.504 0 0 0 13.622 2.709 12.497 12.497 0 0 0 7.697-11.049h1.52a.5.5 0 0 0 .5-.5c0-8.002-6.498-14.5-14.5-14.5zm.5 1.051a13.44 13.44 0 0 1 12.95 12.95h-1.358a.507.507 0 0 0-.174 0h-3.52a8.403 8.403 0 0 0-7.898-7.9v-3.523a.5.5 0 0 0 0-.16zm-1 1.967v3.482a.5.5 0 0 0 .5.5c4.148 0 7.5 3.352 7.5 7.5a.5.5 0 0 0 .5.5h3.48a11.493 11.493 0 0 1-19.613 7.633 11.498 11.498 0 0 1-2.492-12.533A11.493 11.493 0 0 1 21 1018.38zm.5 5.982a5.508 5.508 0 0 0-5.5 5.5c0 3.032 2.468 5.5 5.5 5.5s5.5-2.468 5.5-5.5c0-3.031-2.468-5.5-5.5-5.5zm0 1c2.491 0 4.5 2.009 4.5 4.5s-2.009 4.5-4.5 4.5a4.492 4.492 0 0 1-4.5-4.5c0-2.491 2.009-4.5 4.5-4.5zm0 1a3.508 3.508 0 0 0-3.5 3.5c0 1.927 1.573 3.5 3.5 3.5s3.5-1.573 3.5-3.5-1.573-3.5-3.5-3.5zm0 1c1.387 0 2.5 1.114 2.5 2.5 0 1.387-1.113 2.5-2.5 2.5a2.492 2.492 0 0 1-2.5-2.5c0-1.386 1.113-2.5 2.5-2.5z" color="#000" font-family="sans-serif" font-weight="400" overflow="visible" style="line-height:normal;text-indent:0;text-align:start;text-decoration-line:none;text-decoration-style:solid;text-decoration-color:#000;text-transform:none;block-progression:tb;isolation:auto;mix-blend-mode:normal" transform="translate(0 -1006.362)"></path>
</svg>
