<svg xmlns="http://www.w3.org/2000/svg" width="46" height="46" id="car">
  <path fill-rule="evenodd" d="M23 1006.362c12.708 0 23 10.292 23 23 0 12.709-10.292 23-23 23s-23-10.291-23-23c0-12.708 10.292-23 23-23zm-10.514 13.014a.5.5 0 0 0-.5.5v1.514H9.5a.5.5 0 0 0-.5.5v1.972a.5.5 0 0 0 .5.5h.5v13.027h-.5a.5.5 0 0 0-.5.5v1.973a.5.5 0 0 0 .5.5h26.973a.5.5 0 0 0 .5-.5v-1.973a.5.5 0 0 0-.5-.5h-.5v-13.027h.5a.5.5 0 0 0 .5-.5v-1.972a.5.5 0 0 0-.5-.5h-2.487v-1.514a.5.5 0 0 0-.5-.5h-2a.5.5 0 0 0-.5.5v1.514h-3v-1.514a.5.5 0 0 0-.5-.5h-9a.5.5 0 0 0-.5.5v1.514h-3v-1.514a.5.5 0 0 0-.5-.5zm.5 1h1v1h-1zm6 0h8v1h-8zm13 0h1v1h-1zM10 1022.39h25.973v.972H10zm1 2h23.973v12.986H11zm1.986.986v1h-1v1h1v1h1v-1h1v-1h-1v-1zm8.276 1a.5.5 0 0 0-.487.385l-1.15 4.799a.5.5 0 0 0 .486.617h1.59l-.91 2.53c-.185.51.458.909.832.516l4.6-4.8a.5.5 0 0 0-.362-.846h-1.59l.91-2.531a.5.5 0 0 0-.47-.67zm9.724 0v1h3v-1zm-9.33 1H24l-.908 2.531a.5.5 0 0 0 .469.67h1.128l-2.16 2.254.354-.984a.5.5 0 0 0-.47-.67h-1.667zM10 1038.39h25.973v.972H10z" color="#000" font-family="sans-serif" font-weight="400" overflow="visible" style="line-height:normal;text-indent:0;text-align:start;text-decoration-line:none;text-decoration-style:solid;text-decoration-color:#000;text-transform:none;block-progression:tb;isolation:auto;mix-blend-mode:normal" transform="translate(0 -1006.362)"></path>
</svg>
