<svg xmlns="http://www.w3.org/2000/svg" width="46" height="46" id="car">
  <path fill-rule="evenodd" d="M23 1006.362c12.708 0 23 10.292 23 23 0 12.709-10.292 23-23 23s-23-10.291-23-23c0-12.708 10.292-23 23-23zm-9.55 15c-.667.034-.617 1.034.05 1h4.492v2H13.5a.5.5 0 0 0-.5.5v1.5h-1.5a.5.5 0 0 0-.5.5v4H9v-3a.5.5 0 1 0-1 0v7c-.01.676 1.01.676 1 0v-3h2v4a.5.5 0 0 0 .5.5h2.691l.862 1.725a.5.5 0 0 0 .447.275h14a.5.5 0 0 0 .5-.5v-4h2v3a.5.5 0 0 0 .5.5h3a.5.5 0 0 0 .5-.5v-10a.5.5 0 0 0-.5-.5h-3a.5.5 0 0 0-.5.5v3h-2.209l-1.857-3.248a.5.5 0 0 0-.434-.252H24v-1.5a.5.5 0 0 0-.5-.5h-4.508v-2H23.5c.676.01.676-1.01 0-1H13.45zm.55 4h9v1.5a.5.5 0 0 0 .5.5h3.709l1.857 3.248a.5.5 0 0 0 .434.252h3a.5.5 0 0 0 .5-.5v-3h2v9h-2v-3a.5.5 0 0 0-.5-.5h-3a.5.5 0 0 0-.5.5v4H15.809l-.862-1.723a.5.5 0 0 0-.447-.277H12v-8h1.5a.5.5 0 0 0 .5-.5z" color="#000" font-family="sans-serif" font-weight="400" overflow="visible" style="line-height:normal;text-indent:0;text-align:start;text-decoration-line:none;text-decoration-style:solid;text-decoration-color:#000;text-transform:none;block-progression:tb;isolation:auto;mix-blend-mode:normal" transform="translate(0 -1006.362)"></path>
</svg>
