<svg xmlns="http://www.w3.org/2000/svg" width="46" height="46" id="strut">
  <path d="M23 1006.362c12.708 0 23 10.292 23 23 0 12.709-10.292 23-23 23s-23-10.291-23-23c0-12.708 10.292-23 23-23zm.012 6.996c-1.65 0-3 1.35-3 3 0 .88.39 1.665 1 2.215v2.785h-.5a.5.5 0 0 0-.5.5v2a.5.5 0 0 0 .5.5h1v.559l-1.18.473c-.616.25-.245 1.174.373.93l.807-.325v.93l-1.18.472c-.674.224-.268 1.232.373.926l.807-.324v.926l-1.18.472c-.674.224-.268 1.232.373.926l.807-.324v.918l-1.18.473c-.616.25-.245 1.174.373.93l.807-.325v.93l-1.117.447a.5.5 0 0 0-.383.537v1.95a.5.5 0 0 0 .5.5h.5v2.783c-.61.55-1 1.337-1 2.217 0 1.65 1.35 3 3 3s3-1.35 3-3c0-.88-.391-1.667-1-2.217v-2.783h.5a.5.5 0 0 0 .5-.5v-2a.5.5 0 0 0-.5-.5h-1v-.563l1.18-.472c.51-.209.357-.968-.194-.963a.483.483 0 0 0-.18.037l-.806.324v-.93l1.18-.472c.525-.202.369-.984-.194-.967a.492.492 0 0 0-.18.035l-.806.324v-.918l1.18-.473c.51-.208.357-.967-.194-.962a.483.483 0 0 0-.18.037l-.806.324v-.926l1.18-.473c.51-.208.357-.967-.194-.963a.483.483 0 0 0-.18.037l-.806.325v-.93l1.129-.453a.5.5 0 0 0 .35-.336l.003-.012a.549.549 0 0 0 .018-.126v-2.008a.5.5 0 0 0-.5-.5h-.5v-2.785a2.98 2.98 0 0 0 1-2.215c0-1.65-1.35-3-3-3zm0 1.205c1 0 1.8.798 1.8 1.8 0 1-.8 1.8-1.8 1.8-1.002 0-1.801-.8-1.801-1.8 0-1.002.8-1.8 1.8-1.8zm-1 4.612c.314.113.648.187 1 .187s.685-.075 1-.187v2.187h-2zm-1 3.187h4v1h-4zm1.5 2h.39l-.39.156zm1 .834v.93l-1 .4v-.928zm0 2.006v.924l-1 .4v-.924zm0 2v.916l-1 .4v-.916zm0 1.996v.928l-1 .4v-.928zm0 2.004v.16h-.4zm-2.5 1.16h4v1h-4zm1 2h2v2.186a2.95 2.95 0 0 0-1-.186c-.352 0-.686.073-1 .186zm1 3.201c1 0 1.8.798 1.8 1.8 0 1-.8 1.8-1.8 1.8-1.001 0-1.801-.8-1.801-1.8 0-1.002.8-1.8 1.8-1.8z" color="#000" font-family="sans-serif" font-weight="400" overflow="visible" style="line-height:normal;text-indent:0;text-align:start;text-decoration-line:none;text-decoration-style:solid;text-decoration-color:#000;text-transform:none;block-progression:tb;isolation:auto;mix-blend-mode:normal" transform="translate(0 -1006.362)"></path>
</svg>
