<svg xmlns="http://www.w3.org/2000/svg" viewBox="0 0 48 48" id="snowflake">
  <path d="M24 0C10.745 0 0 10.745 0 24s10.745 24 24 24 24-10.745 24-24S37.255 0 24 0zm11.271 18.815a.499.499 0 1 1-.258.966l-1.85-.496-1.373.793 2.25.602a.501.501 0 0 1-.129.983.534.534 0 0 1-.13-.017l-3.216-.862-1.373.792 3.615.969a.501.501 0 0 1-.129.983.534.534 0 0 1-.13-.017l-4.581-1.228L24.999 24l2.967 1.713 4.581-1.228a.5.5 0 0 1 .259.967l-3.615.969 1.373.792 3.216-.862a.505.505 0 0 1 .613.354.5.5 0 0 1-.354.613l-2.25.602 1.373.793 1.85-.496a.508.508 0 0 1 .612.354.5.5 0 0 1-.354.612l-.883.236 1.553.897a.5.5 0 1 1-.5.866l-1.552-.896.237.883a.5.5 0 0 1-.966.258l-.495-1.849-1.374-.793.603 2.249a.5.5 0 0 1-.967.26l-.862-3.216-1.372-.792.969 3.616a.5.5 0 0 1-.966.258l-1.227-4.581-2.968-1.713v3.427l3.354 3.354a.5.5 0 0 1-.708.707L24.5 29.707v1.586l2.354 2.354a.5.5 0 0 1-.708.707L24.5 32.707v1.586l1.354 1.354a.5.5 0 0 1-.708.707l-.646-.647V37.5a.5.5 0 0 1-1 0v-1.793l-.646.646a.5.5 0 0 1-.707-.707l1.354-1.354v-1.586l-1.646 1.646a.5.5 0 0 1-.707-.707l2.354-2.354v-1.586l-2.646 2.646a.5.5 0 0 1-.707-.707l3.354-3.354v-3.427l-2.968 1.713-1.227 4.581a.502.502 0 0 1-.612.354.499.499 0 0 1-.354-.612l.969-3.616-1.372.792-.862 3.216a.502.502 0 0 1-.613.353.501.501 0 0 1-.354-.613l.603-2.249-1.374.793-.495 1.849a.502.502 0 0 1-.612.354.499.499 0 0 1-.354-.612l.237-.883-1.552.896a.5.5 0 0 1-.5-.866l1.553-.897-.883-.236a.499.499 0 1 1 .258-.966l1.85.496 1.373-.793-2.25-.602a.501.501 0 0 1-.354-.613.509.509 0 0 1 .613-.354l3.216.862 1.373-.792-3.615-.969a.501.501 0 0 1-.354-.613.507.507 0 0 1 .613-.354l4.581 1.228L23.001 24l-2.967-1.713-4.581 1.228a.5.5 0 0 1-.259-.966l3.615-.969-1.373-.792-3.216.862a.5.5 0 0 1-.259-.966l2.25-.602-1.373-.793-1.85.496a.5.5 0 0 1-.258-.966l.883-.236-1.553-.897a.5.5 0 1 1 .5-.866l1.552.896-.237-.883a.5.5 0 0 1 .354-.612.508.508 0 0 1 .612.354l.495 1.849 1.374.793-.603-2.249a.5.5 0 0 1 .354-.613.506.506 0 0 1 .613.354l.862 3.216 1.372.792-.969-3.616a.5.5 0 0 1 .966-.258l1.227 4.581 2.968 1.713V19.71l-3.354-3.354a.5.5 0 0 1 .707-.707l2.646 2.646v-1.586l-2.354-2.354a.5.5 0 0 1 .707-.707l1.646 1.646v-1.586l-1.354-1.354a.5.5 0 0 1 .707-.707l.646.646V10.5a.5.5 0 0 1 1 0v1.793l.646-.646a.5.5 0 0 1 .707.707l-1.35 1.353v1.586l1.646-1.646a.5.5 0 0 1 .707.707L24.5 16.707v1.586l2.646-2.646a.5.5 0 0 1 .707.707L24.5 19.707v3.427l2.968-1.713 1.227-4.581a.499.499 0 1 1 .966.258l-.969 3.616 1.372-.792.862-3.216a.508.508 0 0 1 .613-.354.501.501 0 0 1 .354.613l-.603 2.249 1.374-.793.495-1.849a.499.499 0 1 1 .966.258l-.237.883 1.552-.896a.497.497 0 0 1 .683.183.498.498 0 0 1-.183.683l-1.553.897.884.235z"></path>
</svg>
