<svg xmlns="http://www.w3.org/2000/svg" width="46" height="46" id="car">
  <path d="M23 1006.362c12.708 0 23 10.292 23 23 0 12.709-10.292 23-23 23s-23-10.291-23-23c0-12.708 10.292-23 23-23zm0 8c-8.278 0-15 6.722-15 15 0 8.279 6.722 15 15 15 8.278 0 15-6.721 15-15 0-8.278-6.722-15-15-15zm0 1c7.738 0 14 6.262 14 14s-6.262 14-14 14-14-6.262-14-14 6.262-14 14-14zm0 2c-6.621 0-12 5.379-12 12 0 6.622 5.379 12 12 12s12-5.378 12-12c0-6.621-5.379-12-12-12zm0 1c5.397 0 9.87 3.877 10.81 9h-3.046c-1.285-1.915-4.352-3-7.776-3h-.002c-3.412 0-6.46 1.093-7.738 3h-3.059c.94-5.123 5.414-9 10.811-9zm-.012 7c3.274 0 6.105 1.204 7.008 2.654l-.002 3.45a5.405 5.405 0 0 0-4.892 4.89h-4.204a5.403 5.403 0 0 0-4.89-4.89l-.004-3.432c.888-1.452 3.71-2.668 6.984-2.672zm-10.937 3h2.953l.002 2H12.05c-.03-.33-.051-.662-.051-1 0-.337.021-.67.05-1zm10.949 0c-1.099 0-2 .902-2 2 0 1.099.901 2 2 2s2-.901 2-2c0-1.098-.901-2-2-2zm7.996 0h2.953c.03.33.051.663.051 1 0 .338-.021.67-.05 1h-2.956zm-7.996 1c.558 0 1 .442 1 1s-.442 1-1 1-1-.442-1-1 .442-1 1-1zm-10.81 2h2.818v.502a.5.5 0 0 0 .5.5 4.484 4.484 0 0 1 4.492 4.492.5.5 0 0 0 .5.5h.5v2.815a10.987 10.987 0 0 1-8.81-8.809zm18.804 0h2.817a10.987 10.987 0 0 1-8.811 8.809v-2.815h.5a.5.5 0 0 0 .5-.5 4.486 4.486 0 0 1 4.494-4.492.5.5 0 0 0 .5-.5zM22 1037.356h2v2.953c-.33.03-.662.053-1 .053-.338 0-.67-.023-1-.053z" color="#000" font-family="sans-serif" font-weight="400" overflow="visible" style="line-height:normal;text-indent:0;text-align:start;text-decoration-line:none;text-decoration-style:solid;text-decoration-color:#000;text-transform:none;block-progression:tb;isolation:auto;mix-blend-mode:normal" transform="translate(0 -1006.362)"></path>
</svg>
