<svg xmlns="http://www.w3.org/2000/svg" width="46" height="46" id="car">
  <path d="M23 1006.362c12.708 0 23 10.292 23 23 0 12.709-10.292 23-23 23s-23-10.291-23-23c0-12.708 10.292-23 23-23zm6.578 8.924c-.673.061-1.262.543-1.326 1.233l-.217 2.343H19v-2.125c0-.791-.711-1.375-1.5-1.375h-2c-.789 0-1.5.584-1.5 1.375v5.25c0 .792.711 1.375 1.5 1.375h2c.789 0 1.5-.583 1.5-1.375v-2.125h4v17.57a2.004 2.004 0 0 0-1.428 1.43H19v-2.125c0-.791-.711-1.375-1.5-1.375h-2c-.789 0-1.5.584-1.5 1.375v5.25c0 .792.711 1.375 1.5 1.375h2c.789 0 1.5-.583 1.5-1.375v-2.125h2.572a2.005 2.005 0 0 0 1.928 1.5c.925 0 1.702-.642 1.928-1.5H28v2.125c0 .792.711 1.375 1.5 1.375h2c.789 0 1.5-.583 1.5-1.375v-5.25c0-.791-.711-1.375-1.5-1.375h-2c-.789 0-1.5.584-1.5 1.375v2.125h-2.572a2.004 2.004 0 0 0-1.428-1.43v-17.57h3.943l-.173 1.885c-.073.788.581 1.435 1.367 1.508l1.992.183c.785.073 1.546-.444 1.619-1.232l.482-5.227c.073-.788-.581-1.435-1.367-1.507l-1.992-.184a1.366 1.366 0 0 0-.293 0zm.201.998 1.992.184c.318.029.48.242.463.42l-.482 5.226c-.016.177-.213.358-.531.328l-1.992-.183c-.318-.03-.48-.243-.463-.42l.482-5.229c.016-.177.213-.355.531-.326zm-14.279.078h2c.32 0 .5.197.5.375v5.25c0 .178-.18.375-.5.375h-2c-.32 0-.5-.197-.5-.375v-5.25c0-.178.18-.375.5-.375zm0 20h2c.32 0 .5.197.5.375v5.25c0 .178-.18.375-.5.375h-2c-.32 0-.5-.197-.5-.375v-5.25c0-.178.18-.375.5-.375zm14 0h2c.32 0 .5.197.5.375v5.25c0 .178-.18.375-.5.375h-2c-.32 0-.5-.197-.5-.375v-5.25c0-.178.18-.375.5-.375zm-6 2c.558 0 1 .442 1 1s-.442 1-1 1-1-.442-1-1 .442-1 1-1z" color="#000" font-family="sans-serif" font-weight="400" overflow="visible" style="line-height:normal;text-indent:0;text-align:start;text-decoration-line:none;text-decoration-style:solid;text-decoration-color:#000;text-transform:none;block-progression:tb;isolation:auto;mix-blend-mode:normal" transform="translate(0 -1006.362)"></path>
</svg>
